<svg xmlns="http://www.w3.org/2000/svg" width="1280" height="720" viewBox="0 0 1280 720" role="img" aria-labelledby="title desc">
  <title id="title">Softshot annotating a spreadsheet in Windows</title>
  <desc id="desc">A simple fake Chrome spreadsheet with anonymous data, a red Softshot pen circle, and a green Profit joke.</desc>
  <defs>
    <filter id="window-shadow" x="-15%" y="-15%" width="130%" height="145%">
      <feDropShadow dx="0" dy="14" stdDeviation="18" flood-color="#26323d" flood-opacity="0.26"/>
    </filter>
    <filter id="toolbar-shadow" x="-30%" y="-50%" width="160%" height="220%">
      <feDropShadow dx="0" dy="10" stdDeviation="10" flood-color="#000" flood-opacity="0.42"/>
    </filter>
    <mask id="selection-mask">
      <rect width="1280" height="720" fill="#fff"/>
      <rect x="88" y="172" width="1104" height="424" fill="#000"/>
    </mask>
  </defs>

  <rect width="1280" height="720" fill="#cfd5dc"/>
  <rect y="672" width="1280" height="48" fill="#eef2f6" fill-opacity="0.96"/>
  <line x1="0" y1="672" x2="1280" y2="672" stroke="#bac3cc"/>
  <g transform="translate(604 684)" fill="#2a6fd6">
    <rect width="13" height="13" rx="1"/><rect x="16" width="13" height="13" rx="1"/>
    <rect y="16" width="13" height="13" rx="1"/><rect x="16" y="16" width="13" height="13" rx="1"/>
  </g>
  <circle cx="662" cy="698" r="10" fill="#f7c844"/><circle cx="698" cy="698" r="10" fill="#3c82df"/>

  <g filter="url(#window-shadow)">
    <rect x="54" y="64" width="1172" height="584" rx="10" fill="#fff"/>
    <path d="M54 74a10 10 0 0 1 10-10h1152a10 10 0 0 1 10 10v40H54Z" fill="#dfe4e9"/>
    <path d="M76 78h205a8 8 0 0 1 8 8v28H68V86a8 8 0 0 1 8-8Z" fill="#f8fafc"/>
    <circle cx="91" cy="96" r="7" fill="#6f9ad2"/>
    <rect x="108" y="90" width="92" height="7" rx="3.5" fill="#65717c"/>
    <rect x="108" y="102" width="58" height="5" rx="2.5" fill="#a1aab2"/>
    <path d="m268 91 10 10m0-10-10 10" stroke="#7b858e" stroke-width="1.5" stroke-linecap="round"/>
    <path d="M1110 91h14" stroke="#4c5963" stroke-width="1.5" stroke-linecap="round"/>
    <rect x="1149" y="84" width="13" height="13" fill="none" stroke="#4c5963" stroke-width="1.4"/>
    <rect x="1184" y="64" width="42" height="50" rx="0" fill="#dfe4e9"/>
    <path d="m1198 87 14 14m0-14-14 14" stroke="#4c5963" stroke-width="1.5" stroke-linecap="round"/>

    <rect x="54" y="114" width="1172" height="58" fill="#f7f8fa"/>
    <line x1="54" y1="172" x2="1226" y2="172" stroke="#cdd4da"/>
    <path d="m82 143 8-8m-8 8 8 8m20-8h16" fill="none" stroke="#6f7b85" stroke-width="2" stroke-linecap="round" stroke-linejoin="round"/>
    <rect x="150" y="128" width="818" height="31" rx="15.5" fill="#e7eaee"/>
    <circle cx="171" cy="143.5" r="6" fill="none" stroke="#78838c" stroke-width="1.5"/>
    <rect x="190" y="140" width="132" height="7" rx="3.5" fill="#919ba3"/>
    <circle cx="1152" cy="143" r="12" fill="#81a5d3"/>
    <circle cx="1187" cy="143" r="3" fill="#717c85"/>

    <g transform="translate(88 172)">
      <rect width="1104" height="424" fill="#fbfcfd"/>
      <rect width="1104" height="46" fill="#f4f7f8"/>
      <rect width="54" height="424" fill="#f2f5f6"/>
      <line x1="54" y1="0" x2="54" y2="424" stroke="#c7d0d6"/>
      <line x1="0" y1="46" x2="1104" y2="46" stroke="#c7d0d6"/>
      <path d="M54 0v424M204 0v424M354 0v424M504 0v424M654 0v424M804 0v424M954 0v424M1104 0v424" stroke="#dbe1e5"/>
      <path d="M0 46h1104M0 92h1104M0 138h1104M0 184h1104M0 230h1104M0 276h1104M0 322h1104M0 368h1104M0 414h1104" stroke="#dbe1e5"/>
      <g fill="#69757e" font-family="Segoe UI, system-ui, sans-serif" font-size="12" text-anchor="middle">
        <text x="129" y="29">A</text><text x="279" y="29">B</text><text x="429" y="29">C</text><text x="579" y="29">D</text><text x="729" y="29">E</text><text x="879" y="29">F</text><text x="1029" y="29">G</text>
        <text x="27" y="76">1</text><text x="27" y="122">2</text><text x="27" y="168">3</text><text x="27" y="214">4</text><text x="27" y="260">5</text><text x="27" y="306">6</text><text x="27" y="352">7</text><text x="27" y="398">8</text>
      </g>
      <rect x="69" y="60" width="98" height="8" rx="4" fill="#31373c"/>
      <circle cx="183" cy="64" r="4" fill="#31373c"/>
      <rect x="222" y="60" width="72" height="8" rx="4" fill="#31373c"/>
      <rect x="371" y="60" width="104" height="8" rx="4" fill="#31373c"/>
      <circle cx="523" cy="64" r="4" fill="#31373c"/><circle cx="540" cy="64" r="4" fill="#31373c"/>
      <rect x="69" y="106" width="64" height="7" rx="3.5" fill="#495157"/>
      <circle cx="226" cy="110" r="4" fill="#495157"/><circle cx="243" cy="110" r="4" fill="#495157"/><circle cx="260" cy="110" r="4" fill="#495157"/>
      <rect x="371" y="106" width="78" height="7" rx="3.5" fill="#495157"/>
      <rect x="518" y="106" width="105" height="7" rx="3.5" fill="#495157"/>
      <rect x="69" y="152" width="112" height="7" rx="3.5" fill="#495157"/>
      <rect x="222" y="152" width="93" height="7" rx="3.5" fill="#495157"/>
      <circle cx="376" cy="156" r="4" fill="#495157"/><circle cx="393" cy="156" r="4" fill="#495157"/>
      <rect x="519" y="152" width="67" height="7" rx="3.5" fill="#495157"/>
      <rect x="69" y="198" width="82" height="7" rx="3.5" fill="#495157"/>
      <circle cx="226" cy="202" r="4" fill="#495157"/><circle cx="243" cy="202" r="4" fill="#495157"/>
      <rect x="371" y="198" width="116" height="7" rx="3.5" fill="#495157"/>
      <rect x="519" y="198" width="54" height="7" rx="3.5" fill="#495157"/>
      <rect x="654" y="184" width="300" height="46" fill="#effaf1" stroke="#9fd7aa"/>
      <text x="804" y="213" fill="#188447" font-family="Segoe UI, system-ui, sans-serif" font-size="20" font-weight="700" text-anchor="middle">$$ Profit!</text>
      <rect x="69" y="244" width="91" height="7" rx="3.5" fill="#495157"/>
      <rect x="222" y="244" width="64" height="7" rx="3.5" fill="#495157"/>
      <rect x="371" y="244" width="92" height="7" rx="3.5" fill="#495157"/>
      <circle cx="525" cy="248" r="4" fill="#495157"/><circle cx="542" cy="248" r="4" fill="#495157"/><circle cx="559" cy="248" r="4" fill="#495157"/>
      <rect x="69" y="290" width="61" height="7" rx="3.5" fill="#495157"/>
      <circle cx="226" cy="294" r="4" fill="#495157"/><circle cx="243" cy="294" r="4" fill="#495157"/>
      <rect x="371" y="290" width="109" height="7" rx="3.5" fill="#495157"/>
      <rect x="519" y="290" width="81" height="7" rx="3.5" fill="#495157"/>
      <rect x="69" y="336" width="106" height="7" rx="3.5" fill="#495157"/>
      <rect x="222" y="336" width="76" height="7" rx="3.5" fill="#495157"/>
      <circle cx="376" cy="340" r="4" fill="#495157"/><circle cx="393" cy="340" r="4" fill="#495157"/>
      <rect x="519" y="336" width="101" height="7" rx="3.5" fill="#495157"/>
    </g>
  </g>

  <rect width="1280" height="672" fill="#090d10" opacity="0.48" mask="url(#selection-mask)"/>
  <rect x="88" y="172" width="1104" height="424" fill="none" stroke="#fff" stroke-opacity="0.92"/>
  <rect x="88" y="172" width="1104" height="424" fill="none" stroke="#38bdf8" stroke-width="3"/>
  <rect x="82" y="166" width="12" height="12" rx="3" fill="#fff" stroke="#38bdf8" stroke-width="2"/>
  <rect x="1186" y="590" width="12" height="12" rx="3" fill="#fff" stroke="#38bdf8" stroke-width="2"/>
  <path d="M714 338c55-34 205-35 277 0 62 30 55 83-14 103-77 23-211 13-257-25-39-33-21-65 39-86" fill="none" stroke="#ef334f" stroke-width="8" stroke-linecap="round"/>

  <g filter="url(#toolbar-shadow)">
    <rect x="472" y="12" width="336" height="54" rx="8" fill="#0d0e10" fill-opacity="0.96" stroke="#fff" stroke-opacity="0.22"/>
    <rect x="478" y="18" width="42" height="42" rx="7" fill="#38bdf8" fill-opacity="0.18" stroke="#38bdf8" stroke-opacity="0.4"/>
    <g transform="translate(487.5 27.5)" fill="none" stroke="#f4f7fb" stroke-width="1.8" stroke-linecap="round" stroke-linejoin="round"><path d="M8 7.5 9.4 5h5.2L16 7.5h2.5A2.5 2.5 0 0 1 21 10v7.5a2.5 2.5 0 0 1-2.5 2.5h-13A2.5 2.5 0 0 1 3 17.5V10a2.5 2.5 0 0 1 2.5-2.5H8Z"/><circle cx="12" cy="13.5" r="3.6"/></g>
    <g transform="translate(534.5 27.5)" fill="none" stroke="#f4f7fb" stroke-width="1.8" stroke-linecap="round" stroke-linejoin="round"><rect x="3" y="6" width="12" height="12" rx="2.5"/><path d="m15.5 10 5-3v10l-5-3Z"/></g>
    <rect x="572" y="18" width="42" height="42" rx="7" fill="#ef334f" fill-opacity="0.18" stroke="#ef334f" stroke-opacity="0.45"/>
    <g transform="translate(581.5 27.5)" fill="none" stroke="#f4f7fb" stroke-width="1.8" stroke-linecap="round" stroke-linejoin="round"><path d="m4 20 4.4-1 9.9-9.9-3.4-3.4L5 15.6 4 20Z"/><path d="m13.4 7.2 3.4 3.4"/><path d="m16 4.6 1.1-1.1a1.8 1.8 0 0 1 2.6 0l.8.8a1.8 1.8 0 0 1 0 2.6L19.4 8"/></g>
    <rect x="598" y="54" width="16" height="3" rx="1.5" fill="#ef334f"/>
    <g transform="translate(628.5 27.5)" fill="none" stroke="#f4f7fb" stroke-width="1.8" stroke-linecap="round" stroke-linejoin="round"><path d="M5 19 18.5 5.5"/><path d="M10.5 5.5h8v8"/></g>
    <rect x="645" y="54" width="16" height="3" rx="1.5" fill="#ef334f"/>
    <circle cx="687" cy="39" r="11" fill="#ef334f" stroke="#fff" stroke-width="2"/>
    <g transform="translate(722.5 27.5)" fill="none" stroke="#f4f7fb" stroke-width="1.8" stroke-linecap="round"><circle cx="12" cy="12" r="3"/><path d="M12 2v4m0 12v4M2 12h4m12 0h4M5 5l3 3m8 8 3 3m0-14-3 3M8 16l-3 3"/></g>
    <g transform="translate(769.5 27.5)" fill="none" stroke="#f4f7fb" stroke-width="1.8" stroke-linecap="round"><path d="M6 6 18 18M18 6 6 18"/></g>
  </g>
</svg>
