<svg xmlns="http://www.w3.org/2000/svg" width="1280" height="720" viewBox="0 0 1280 720" role="img" aria-labelledby="title desc">
  <title id="title">Softshot capture overlay Windows preview</title>
  <desc id="desc">A Windows-style desktop with Softshot selecting a region, showing annotation tools and a clean capture toolbar.</desc>
  <defs>
    <linearGradient id="desktop-bg" x1="0" y1="0" x2="1" y2="1">
      <stop stop-color="#0f3b5e" />
      <stop offset="0.48" stop-color="#14557a" />
      <stop offset="1" stop-color="#0e2435" />
    </linearGradient>
    <linearGradient id="window-surface" x1="0" y1="0" x2="0" y2="1">
      <stop stop-color="#f8fafc" />
      <stop offset="1" stop-color="#eef2f7" />
    </linearGradient>
    <linearGradient id="graph-line" x1="0" y1="0" x2="1" y2="0">
      <stop stop-color="#2563eb" />
      <stop offset="1" stop-color="#06b6d4" />
    </linearGradient>
    <filter id="soft-shadow" x="-20%" y="-20%" width="140%" height="140%">
      <feDropShadow dx="0" dy="20" stdDeviation="18" flood-color="#02111f" flood-opacity="0.32" />
    </filter>
    <mask id="cutout">
      <rect width="1280" height="720" fill="#ffffff" />
      <rect x="154" y="142" width="700" height="390" fill="#000000" />
    </mask>
  </defs>

  <rect width="1280" height="720" fill="url(#desktop-bg)" />
  <path d="M0 502 C190 456 322 491 486 442 C690 382 818 374 1016 413 C1121 433 1193 426 1280 391 V720 H0 Z" fill="#0b1b2b" opacity="0.22" />
  <path d="M0 575 C174 536 312 550 474 512 C649 470 802 491 940 526 C1075 560 1181 550 1280 518 V720 H0 Z" fill="#ffffff" opacity="0.06" />

  <g filter="url(#soft-shadow)">
    <rect x="84" y="76" width="820" height="496" rx="10" fill="url(#window-surface)" />
    <rect x="84" y="76" width="820" height="44" rx="10" fill="#f8fafc" />
    <line x1="84" y1="120" x2="904" y2="120" stroke="#d6dde8" />
    <text x="112" y="104" fill="#111827" font-family="Segoe UI, system-ui, sans-serif" font-size="13" font-weight="600">Roadmap Dashboard</text>
    <path d="M806 98 H820" stroke="#475569" stroke-width="1.5" stroke-linecap="round" />
    <rect x="842" y="91" width="13" height="13" fill="none" stroke="#475569" stroke-width="1.4" />
    <path d="M878 92 L891 105 M891 92 L878 105" stroke="#475569" stroke-width="1.5" stroke-linecap="round" />

    <rect x="112" y="150" width="220" height="32" rx="7" fill="#e0f2fe" />
    <text x="130" y="171" fill="#075985" font-family="Segoe UI, system-ui, sans-serif" font-size="13" font-weight="600">Sprint health</text>
    <rect x="112" y="204" width="732" height="13" rx="6.5" fill="#cbd5e1" opacity="0.7" />
    <rect x="112" y="230" width="610" height="13" rx="6.5" fill="#e2e8f0" />
    <rect x="112" y="276" width="214" height="146" rx="10" fill="#ffffff" stroke="#d8e0ea" />
    <rect x="352" y="276" width="214" height="146" rx="10" fill="#ffffff" stroke="#d8e0ea" />
    <rect x="592" y="276" width="214" height="146" rx="10" fill="#ffffff" stroke="#d8e0ea" />
    <path d="M138 383 L182 342 L226 363 L296 310" fill="none" stroke="url(#graph-line)" stroke-width="8" stroke-linecap="round" stroke-linejoin="round" />
    <path d="M378 389 L430 335 L478 356 L536 314" fill="none" stroke="#16a34a" stroke-width="8" stroke-linecap="round" stroke-linejoin="round" />
    <path d="M618 382 L669 351 L714 366 L778 317" fill="none" stroke="#e11d48" stroke-width="8" stroke-linecap="round" stroke-linejoin="round" />
    <rect x="112" y="458" width="492" height="16" rx="8" fill="#cbd5e1" opacity="0.7" />
    <rect x="112" y="490" width="360" height="16" rx="8" fill="#e2e8f0" />
  </g>

  <g filter="url(#soft-shadow)">
    <rect x="950" y="164" width="238" height="304" rx="12" fill="#f8fafc" />
    <rect x="950" y="164" width="238" height="42" rx="12" fill="#ffffff" />
    <line x1="950" y1="206" x2="1188" y2="206" stroke="#d6dde8" />
    <text x="974" y="190" fill="#111827" font-family="Segoe UI, system-ui, sans-serif" font-size="13" font-weight="600">Notes</text>
    <path d="M1110 185 H1123" stroke="#475569" stroke-width="1.4" stroke-linecap="round" />
    <rect x="1144" y="179" width="12" height="12" fill="none" stroke="#475569" stroke-width="1.3" />
    <path d="M1173 180 L1184 191 M1184 180 L1173 191" stroke="#475569" stroke-width="1.4" stroke-linecap="round" />
    <rect x="974" y="236" width="164" height="18" rx="9" fill="#cbd5e1" />
    <rect x="974" y="280" width="190" height="58" rx="10" fill="#eef2f7" />
    <rect x="974" y="356" width="190" height="58" rx="10" fill="#eef2f7" />
  </g>

  <rect y="672" width="1280" height="48" fill="#101722" opacity="0.96" />
  <line x1="0" y1="672" x2="1280" y2="672" stroke="#1f2937" />

  <rect width="1280" height="672" fill="#020617" opacity="0.48" mask="url(#cutout)" />
  <rect x="154" y="142" width="700" height="390" fill="none" stroke="#f8fafc" stroke-width="1.4" />
  <rect x="154" y="142" width="700" height="390" fill="none" stroke="#38bdf8" stroke-width="3" />
  <rect x="148" y="136" width="12" height="12" rx="3" fill="#ffffff" stroke="#38bdf8" stroke-width="2" />
  <rect x="848" y="526" width="12" height="12" rx="3" fill="#ffffff" stroke="#38bdf8" stroke-width="2" />
  <circle cx="354" cy="340" r="54" fill="none" stroke="#38bdf8" stroke-width="7" stroke-linecap="round" />
  <path d="M332 324 L332 324 M376 324 L376 324" fill="none" stroke="#38bdf8" stroke-width="10" stroke-linecap="round" />
  <path d="M319 356 C338 378 371 378 390 356" fill="none" stroke="#38bdf8" stroke-width="7" stroke-linecap="round" />
  <path d="M658 248 L420 322" fill="none" stroke="#f43f5e" stroke-width="8" stroke-linecap="round" />
  <path d="M420 322 L454 295 M420 322 L462 338" fill="none" stroke="#f43f5e" stroke-width="8" stroke-linecap="round" stroke-linejoin="round" />

  <g filter="url(#soft-shadow)">
    <rect x="472" y="12" width="336" height="54" rx="8" fill="#0d0e10" opacity="0.94" stroke="#ffffff" stroke-opacity="0.22" />

    <rect x="478" y="18" width="42" height="42" rx="7" fill="#38bdf8" fill-opacity="0.18" stroke="#38bdf8" stroke-opacity="0.35" />
    <g transform="translate(487.5 27.5)" fill="none" stroke="#f4f7fb" stroke-width="1.8" stroke-linecap="round" stroke-linejoin="round">
      <path d="M8 7.5 9.4 5h5.2L16 7.5h2.5A2.5 2.5 0 0 1 21 10v7.5a2.5 2.5 0 0 1-2.5 2.5h-13A2.5 2.5 0 0 1 3 17.5V10a2.5 2.5 0 0 1 2.5-2.5H8Z" />
      <circle cx="12" cy="13.5" r="3.6" />
    </g>

    <rect x="525" y="18" width="42" height="42" rx="7" fill="transparent" />
    <g transform="translate(534.5 27.5)" fill="none" stroke="#f4f7fb" stroke-width="1.8" stroke-linecap="round" stroke-linejoin="round">
      <rect x="3" y="6" width="12" height="12" rx="2.5" />
      <path d="m15.5 10 5-3v10l-5-3Z" />
    </g>

    <rect x="572" y="18" width="42" height="42" rx="7" fill="#38bdf8" fill-opacity="0.18" stroke="#38bdf8" stroke-opacity="0.35" />
    <g transform="translate(581.5 27.5)" fill="none" stroke="#f4f7fb" stroke-width="1.8" stroke-linecap="round" stroke-linejoin="round">
      <path d="m4 20 4.4-1 9.9-9.9-3.4-3.4L5 15.6 4 20Z" />
      <path d="m13.4 7.2 3.4 3.4" />
      <path d="m16 4.6 1.1-1.1a1.8 1.8 0 0 1 2.6 0l.8.8a1.8 1.8 0 0 1 0 2.6L19.4 8" />
    </g>
    <rect x="598" y="54" width="16" height="3" rx="1.5" fill="#38bdf8" />

    <rect x="619" y="18" width="42" height="42" rx="7" fill="transparent" />
    <g transform="translate(628.5 27.5)" fill="none" stroke="#f4f7fb" stroke-width="1.8" stroke-linecap="round" stroke-linejoin="round">
      <path d="M5 19 18.5 5.5" />
      <path d="M10.5 5.5h8v8" />
    </g>
    <rect x="645" y="54" width="16" height="3" rx="1.5" fill="#38bdf8" />

    <rect x="666" y="18" width="42" height="42" rx="7" fill="transparent" />
    <circle cx="687" cy="39" r="11" fill="#38bdf8" stroke="#ffffff" stroke-width="2" />
    <circle cx="687" cy="39" r="8" fill="none" stroke="#000000" stroke-opacity="0.25" stroke-width="2" />

    <rect x="713" y="18" width="42" height="42" rx="7" fill="transparent" />
    <g transform="translate(722.5 27.5)" fill="none" stroke="#f4f7fb" stroke-width="1.8" stroke-linecap="round" stroke-linejoin="round">
      <circle cx="12" cy="12" r="3" />
      <path d="M19.4 15a1.75 1.75 0 0 0 .35 1.93l.05.05a2.1 2.1 0 0 1-2.97 2.97l-.05-.05a1.75 1.75 0 0 0-1.93-.35 1.75 1.75 0 0 0-1.06 1.6V21.3a2.1 2.1 0 0 1-4.2 0v-.07a1.75 1.75 0 0 0-1.14-1.6 1.75 1.75 0 0 0-1.93.35l-.05.05a2.1 2.1 0 0 1-2.97-2.97l.05-.05A1.75 1.75 0 0 0 4.6 15a1.75 1.75 0 0 0-1.6-1.06h-.1a2.1 2.1 0 0 1 0-4.2h.1A1.75 1.75 0 0 0 4.6 8.6a1.75 1.75 0 0 0-.35-1.93l-.05-.05a2.1 2.1 0 0 1 2.97-2.97l.05.05A1.75 1.75 0 0 0 9.15 4a1.75 1.75 0 0 0 1.06-1.6V2.3a2.1 2.1 0 0 1 4.2 0v.07A1.75 1.75 0 0 0 15.47 4a1.75 1.75 0 0 0 1.93-.35l.05-.05a2.1 2.1 0 0 1 2.97 2.97l-.05.05A1.75 1.75 0 0 0 19.4 8.6a1.75 1.75 0 0 0 1.6 1.06h.1a2.1 2.1 0 0 1 0 4.2h-.1A1.75 1.75 0 0 0 19.4 15Z" />
    </g>

    <rect x="760" y="18" width="42" height="42" rx="7" fill="transparent" />
    <g transform="translate(769.5 27.5)" fill="none" stroke="#f4f7fb" stroke-width="1.8" stroke-linecap="round" stroke-linejoin="round">
      <path d="M6 6 18 18" />
      <path d="M18 6 6 18" />
    </g>
  </g>
</svg>
