<svg xmlns="http://www.w3.org/2000/svg" width="1280" height="720" viewBox="0 0 1280 720" role="img" aria-labelledby="title desc">
  <title id="title">Softshot video editor</title>
  <desc id="desc">A focused dark video trim editor with copy, save, playback, and timeline controls.</desc>
  <defs>
    <linearGradient id="page-bg" x1="0" y1="0" x2="1" y2="1">
      <stop stop-color="#111827" />
      <stop offset="1" stop-color="#0b0d10" />
    </linearGradient>
    <linearGradient id="preview-bg" x1="0" y1="0" x2="1" y2="1">
      <stop stop-color="#1f2937" />
      <stop offset="1" stop-color="#0f172a" />
    </linearGradient>
    <filter id="window-shadow" x="-20%" y="-20%" width="140%" height="140%">
      <feDropShadow dx="0" dy="34" stdDeviation="34" flood-color="#000000" flood-opacity="0.58" />
    </filter>
  </defs>

  <rect width="1280" height="720" fill="url(#page-bg)" />
  <circle cx="240" cy="150" r="230" fill="#38bdf8" opacity="0.1" />

  <g filter="url(#window-shadow)">
    <rect x="210" y="80" width="860" height="560" rx="9" fill="#202224" stroke="rgba(255,255,255,0.16)" />
    <rect x="210" y="80" width="860" height="48" rx="9" fill="rgba(17,18,20,0.98)" />
    <line x1="210" y1="128" x2="1070" y2="128" stroke="rgba(255,255,255,0.08)" />

    <text x="230" y="110" fill="rgba(245,247,251,0.92)" font-family="Segoe UI, system-ui, sans-serif" font-size="13" font-weight="600">Editor</text>
    <text x="281" y="110" fill="rgba(245,247,251,0.72)" font-family="Segoe UI, system-ui, sans-serif" font-size="12">Ready</text>

    <g transform="translate(605 87)">
      <rect width="34" height="34" rx="7" fill="transparent" />
      <rect x="12" y="12" width="14" height="16" rx="2" fill="none" stroke="#f4f7fb" stroke-width="1.8" />
      <path d="M9 24 H8 Q5 24 5 21 V8 Q5 5 8 5 H21 Q24 5 24 8 V10" fill="none" stroke="#f4f7fb" stroke-width="1.8" stroke-linecap="round" stroke-linejoin="round" />
    </g>
    <g transform="translate(645 87)">
      <rect width="34" height="34" rx="7" fill="transparent" />
      <path d="M8 6 H25 L27 8 V28 H8 Z" fill="none" stroke="#f4f7fb" stroke-width="1.8" stroke-linejoin="round" />
      <path d="M12 6 V15 H23 V6 M12 24 H23" fill="none" stroke="#f4f7fb" stroke-width="1.8" stroke-linecap="round" stroke-linejoin="round" />
    </g>
    <g transform="translate(1026 87)">
      <rect width="34" height="34" rx="7" fill="rgba(248,113,113,0.18)" />
      <path d="M10 10 L24 24 M24 10 L10 24" fill="none" stroke="#fecaca" stroke-width="1.8" stroke-linecap="round" />
    </g>

    <rect x="334" y="146" width="612" height="344" fill="#111315" stroke="rgba(255,255,255,0.08)" />
    <rect x="334" y="146" width="612" height="344" fill="url(#preview-bg)" />
    <rect x="376" y="187" width="528" height="262" rx="14" fill="#101418" stroke="rgba(255,255,255,0.08)" />
    <rect x="407" y="221" width="210" height="25" rx="8" fill="#38bdf8" opacity="0.88" />
    <rect x="407" y="278" width="445" height="14" rx="7" fill="#e5edf8" opacity="0.22" />
    <rect x="407" y="313" width="332" height="14" rx="7" fill="#e5edf8" opacity="0.14" />
    <rect x="407" y="365" width="115" height="74" rx="12" fill="#222831" />
    <rect x="546" y="365" width="115" height="74" rx="12" fill="#222831" />
    <rect x="685" y="365" width="115" height="74" rx="12" fill="#222831" />
    <path d="M423 416 L456 388 L490 404 L514 378" fill="none" stroke="#38bdf8" stroke-width="7" stroke-linecap="round" stroke-linejoin="round" />
    <path d="M562 417 L592 393 L628 406 L653 380" fill="none" stroke="#22c55e" stroke-width="7" stroke-linecap="round" stroke-linejoin="round" />
    <path d="M701 417 L732 391 L768 406 L792 378" fill="none" stroke="#f43f5e" stroke-width="7" stroke-linecap="round" stroke-linejoin="round" />

    <text x="595" y="524" fill="#ffffff" font-family="Segoe UI, system-ui, sans-serif" font-size="18" text-anchor="end">00:08.42</text>
    <text x="610" y="524" fill="rgba(255,255,255,0.48)" font-family="Segoe UI, system-ui, sans-serif" font-size="18">/</text>
    <text x="636" y="524" fill="#ffffff" font-family="Segoe UI, system-ui, sans-serif" font-size="18">00:22.18</text>

    <rect x="230" y="548" width="820" height="54" rx="8" fill="rgba(17,18,20,0.72)" stroke="rgba(255,255,255,0.1)" />
    <rect x="242" y="559" width="32" height="32" rx="7" fill="rgba(255,255,255,0.1)" />
    <path d="M254 568 V582 L266 575 Z" fill="none" stroke="#f4f7fb" stroke-width="1.8" stroke-linejoin="round" />

    <rect x="302" y="572" width="720" height="6" rx="3" fill="rgba(255,255,255,0.16)" />
    <rect x="388" y="572" width="504" height="6" rx="3" fill="#38bdf8" />
    <line x1="576" y1="563" x2="576" y2="587" stroke="#ffffff" stroke-width="2" stroke-linecap="round" />
    <rect x="384" y="564" width="8" height="21" rx="4" fill="#4fc3ff" />
    <rect x="888" y="564" width="8" height="21" rx="4" fill="#4fc3ff" />
  </g>
</svg>
